<?xml version="1.0" standalone="no"?>
<!DOCTYPE svg PUBLIC "-//W3C//DTD SVG 20010904//EN"
 "http://www.w3.org/TR/2001/REC-SVG-20010904/DTD/svg10.dtd">
<svg version="1.0" xmlns="http://www.w3.org/2000/svg"
 width="1200.000000pt" height="1200.000000pt" viewBox="0 0 1200.000000 1200.000000"
 preserveAspectRatio="xMidYMid meet">

<g transform="translate(0.000000,1200.000000) scale(0.100000,-0.100000)"
fill="#000000" stroke="none">
<path d="M5745 11993 c-1787 -76 -3447 -947 -4526 -2373 -638 -843 -1039
-1827 -1169 -2870 -59 -473 -61 -1000 -4 -1470 194 -1626 1056 -3110 2380
-4096 572 -426 1254 -761 1952 -958 364 -103 756 -172 1177 -207 192 -16 695
-16 890 -1 822 68 1546 269 2256 628 1646 832 2813 2363 3179 4167 207 1027
139 2107 -196 3107 -118 352 -340 834 -524 1140 -480 797 -1101 1447 -1867
1953 -1038 686 -2295 1034 -3548 980z m-2956 -3641 c28 -53 1333 -3805 1359
-3907 16 -66 33 -146 37 -178 4 -31 10 -59 14 -62 4 -2 13 30 20 72 26 155 70
286 516 1538 251 704 558 1567 683 1918 l227 638 292 -3 c160 -2 294 -6 297
-9 3 -3 -385 -1067 -863 -2365 l-869 -2359 -305 -3 c-236 -2 -306 1 -314 10
-9 12 -1699 4666 -1711 4710 -4 17 13 18 301 18 286 0 307 -1 316 -18z m5682
8 c257 -25 483 -105 694 -245 203 -135 350 -346 412 -593 22 -84 24 -376 5
-467 -37 -170 -107 -335 -196 -460 -127 -176 -337 -336 -541 -410 -71 -26 -74
-33 -19 -40 279 -38 526 -162 709 -356 159 -168 253 -372 286 -617 15 -109 6
-360 -16 -462 -65 -301 -232 -564 -471 -743 -176 -132 -345 -216 -550 -272
-213 -58 -242 -60 -1089 -60 l-770 0 -3 2362 -2 2363 687 3 c379 1 706 3 728
4 22 2 83 -2 136 -7z"/>
<path d="M7668 7863 l-178 -3 0 -761 0 -760 393 3 c365 4 397 6 470 26 388
107 608 333 658 674 13 92 6 238 -16 335 -47 201 -197 355 -415 426 -174 57
-389 71 -912 60z"/>
<path d="M7490 4991 l0 -851 443 0 c481 0 563 7 712 55 301 99 477 262 566
527 27 79 33 112 37 220 19 510 -232 785 -798 873 -80 13 -205 18 -532 22
l-428 5 0 -851z"/>
</g>
</svg>
